<svg version="1.1" id="Layer_1" xmlns="http://www.w3.org/2000/svg" xmlns:xlink="http://www.w3.org/1999/xlink" x="0px" y="0px"
	 width="25px" height="27.815px" viewBox="0 0 25 27.815" enable-background="new 0 0 25 27.815" xml:space="preserve">
<g>
	<path fill="#767B87" d="M15.657,21.721c0,1.741-1.416,3.157-3.157,3.157s-3.157-1.416-3.157-3.157c0-0.063,0.015-0.121,0.019-0.184
		H6.415c-0.002,0.062-0.01,0.122-0.01,0.184c0,3.361,2.734,6.094,6.095,6.094s6.094-2.733,6.094-6.094
		c0-0.062-0.007-0.122-0.009-0.184h-2.947C15.642,21.6,15.657,21.658,15.657,21.721z"/>
	<path fill="#767B87" d="M23.531,18.692h-1.594V9.437C21.937,4.233,17.704,0,12.5,0S3.063,4.233,3.063,9.437v9.255H1.469
		C0.657,18.692,0,19.349,0,20.16s0.657,1.469,1.469,1.469h1.594h3.106h0.246h2.947h6.276h2.947h0.559h2.792h1.594
		c0.812,0,1.469-0.658,1.469-1.469S24.342,18.692,23.531,18.692z M18.999,18.692h-1.274h-4.877h-0.695H7.275H6.001V9.437
		c0-3.583,2.915-6.499,6.499-6.499s6.499,2.916,6.499,6.499V18.692z"/>
</g>
</svg>
