<?xml version="1.0" encoding="utf-8"?>
<!-- Generator: Adobe Illustrator 16.0.0, SVG Export Plug-In . SVG Version: 6.00 Build 0)  -->
<!DOCTYPE svg PUBLIC "-//W3C//DTD SVG 1.1//EN" "http://www.w3.org/Graphics/SVG/1.1/DTD/svg11.dtd">
<svg version="1.1" id="Layer_1" xmlns="http://www.w3.org/2000/svg" xmlns:xlink="http://www.w3.org/1999/xlink" x="0px" y="0px"
	 width="54.239px" height="33.447px" viewBox="0 0 54.239 33.447" enable-background="new 0 0 54.239 33.447" xml:space="preserve">
<rect x="40.502" y="0.013" fill="#ED2224" width="13.502" height="33.423"/>
<rect x="-0.004" y="0.012" fill="#ED2224" width="13.435" height="33.423"/>
<rect x="13.431" y="0.012" fill="#FFFFFF" width="27.071" height="33.423"/>
<path fill="#ED2224" d="M27.248,22.561l0.113,5.053h-0.811l0.202-5.053l-0.235-0.299l-5.233,0.635l0.405-1.176
	c0,0,0.226-0.48-0.089-0.773c-0.316-0.293-5.12-3.858-5.12-3.858l1.092-0.492c0,0,0.326-0.063,0.201-0.65
	c-0.123-0.588-0.854-2.903-0.854-2.903l2.824,0.556c0,0,0.461,0.147,0.63-0.346c0.146-0.422,0.322-1.005,0.37-1.163
	c0.008-0.026,0.012-0.042,0.012-0.042l2.342,2.484c0,0,0.309,0.322,0.579,0.195c0.315-0.146,0.222-0.567,0.222-0.567
	c-0.202-1.048-1.038-5.13-1.038-5.13l1.497,0.765c0,0,0.607,0.229,0.81-0.178c0.202-0.41,1.823-3.218,1.823-3.218
	s1.635,2.854,1.838,3.265c0.202,0.409,0.81,0.177,0.81,0.177l1.498-0.765c0,0-0.837,4.082-1.039,5.13c0,0-0.094,0.423,0.223,0.57
	c0.27,0.125,0.578-0.196,0.578-0.196l2.342-2.485c0,0,0.005,0.016,0.013,0.041c0.047,0.16,0.224,0.743,0.37,1.166
	c0.169,0.491,0.629,0.344,0.629,0.344l2.824-0.555c0,0-0.73,2.316-0.855,2.903c-0.123,0.587,0.203,0.651,0.203,0.651l1.092,0.492
	c0,0-4.805,3.563-5.119,3.855c-0.316,0.295-0.09,0.776-0.09,0.776l0.404,1.174l-5.164-0.682L27.248,22.561z"/>
</svg>
