<?xml version="1.0" encoding="utf-8"?>
<!-- Generator: Adobe Illustrator 16.0.0, SVG Export Plug-In . SVG Version: 6.00 Build 0)  -->
<!DOCTYPE svg PUBLIC "-//W3C//DTD SVG 1.1//EN" "http://www.w3.org/Graphics/SVG/1.1/DTD/svg11.dtd">
<svg version="1.1" id="Layer_1" xmlns="http://www.w3.org/2000/svg" xmlns:xlink="http://www.w3.org/1999/xlink" x="0px" y="0px"
	 width="39.178px" height="39.178px" viewBox="0 0 39.178 39.178" enable-background="new 0 0 39.178 39.178" xml:space="preserve">
<g id="icon_22_">
	<path fill="#FFFFFF" d="M11.753,39.178c-0.341,0-0.681-0.088-0.983-0.265c-0.604-0.352-0.976-0.996-0.976-1.694v-5.876H7.835
		C3.514,31.343,0,27.827,0,23.507V7.836C0,3.516,3.514,0,7.835,0h23.507c4.321,0,7.836,3.516,7.836,7.836v15.671
		c0,4.32-3.515,7.836-7.836,7.836h-5.356L12.725,38.92C12.424,39.092,12.088,39.178,11.753,39.178z M7.835,3.918
		c-2.159,0-3.918,1.757-3.918,3.918v15.671c0,2.161,1.759,3.918,3.918,3.918h3.918c1.083,0,1.959,0.877,1.959,1.959v4.46
		l10.781-6.161c0.297-0.169,0.632-0.258,0.972-0.258h5.877c2.159,0,3.918-1.757,3.918-3.918V7.836c0-2.161-1.759-3.918-3.918-3.918
		H7.835z"/>
	<circle fill="#FFFFFF" cx="11.337" cy="15.672" r="1.959"/>
	<circle fill="#FFFFFF" cx="19.859" cy="15.672" r="1.959"/>
	<circle fill="#FFFFFF" cx="28.382" cy="15.672" r="1.959"/>
</g>
</svg>
