<svg version="1.1" id="Layer_1" xmlns="http://www.w3.org/2000/svg" xmlns:xlink="http://www.w3.org/1999/xlink" x="0px" y="0px"
	 width="33px" height="28.758px" viewBox="0 0 33 28.758" enable-background="new 0 0 33 28.758" xml:space="preserve">
<path fill="#666E7A" d="M16.5,28.758c-0.435,0-0.872-0.138-1.238-0.413c-0.357-0.269-8.795-6.617-11.994-10.756
	c-2.688-3.477-3.816-7.521-3.015-10.82c0.626-2.582,2.34-4.592,4.955-5.811C9.055-0.838,13.507-0.034,16.5,2.739
	c2.994-2.775,7.446-3.575,11.292-1.781c2.615,1.219,4.329,3.229,4.955,5.811c0.801,3.299-0.326,7.344-3.015,10.821
	c-3.198,4.138-11.637,10.486-11.994,10.755C17.372,28.62,16.935,28.758,16.5,28.758z M9.515,4.116c-0.83,0-1.696,0.177-2.562,0.581
	c-1.46,0.681-2.366,1.705-2.691,3.046c-0.5,2.06,0.37,4.865,2.27,7.322c2.188,2.831,7.537,7.133,9.968,9.026
	c2.43-1.894,7.782-6.198,9.967-9.026c1.9-2.457,2.77-5.263,2.27-7.322c-0.324-1.341-1.23-2.365-2.689-3.046l0,0
	c-3.196-1.493-6.399,0.097-7.793,2.347c-0.752,1.213-2.757,1.213-3.508,0C13.729,5.403,11.751,4.116,9.515,4.116z"/>
</svg>
