<?xml version="1.0" encoding="utf-8"?>
<!-- Generator: Adobe Illustrator 16.0.0, SVG Export Plug-In . SVG Version: 6.00 Build 0)  -->
<!DOCTYPE svg PUBLIC "-//W3C//DTD SVG 1.1//EN" "http://www.w3.org/Graphics/SVG/1.1/DTD/svg11.dtd">
<svg version="1.1" xmlns="http://www.w3.org/2000/svg" xmlns:xlink="http://www.w3.org/1999/xlink" x="0px" y="0px"
	 width="245.922px" height="32.886px" viewBox="0 0 245.922 32.886" enable-background="new 0 0 245.922 32.886"
	 xml:space="preserve">
<g id="Base_1_" enable-background="new    ">
	<g id="Base">
		<g>
			<path fill-rule="evenodd" clip-rule="evenodd" fill="#7DCCB6" d="M160.808,17.847c1.337-0.533,2.326-1.328,2.969-2.383
				c0.642-1.055,0.963-2.259,0.963-3.613c0-2.591-0.996-4.541-2.988-5.85s-4.764-1.963-8.314-1.963h-8.987h-0.842v28.438h0.842
				h10.402c3.499,0,6.186-0.709,8.06-2.129c1.874-1.419,2.812-3.516,2.812-6.289c0-1.484-0.4-2.796-1.199-3.936
				C163.724,18.983,162.485,18.225,160.808,17.847z M150.271,9.116h3.165c1.572,0,2.738,0.277,3.499,0.83
				c0.76,0.554,1.14,1.436,1.14,2.646c0,1.068-0.373,1.879-1.12,2.432c-0.747,0.554-1.874,0.844-3.382,0.869h-3.302V9.116z
				 M158.036,26.567c-0.708,0.554-1.77,0.83-3.185,0.83h-4.58v-7.129h4.953c1.363,0,2.35,0.316,2.959,0.947
				c0.609,0.632,0.914,1.566,0.914,2.803C159.098,25.165,158.744,26.015,158.036,26.567z M179.129,4.038l-9.239,28.438h6.684
				l1.612-5.527l4.399-16l4.623,16l1.632,5.527h6.684l-9.259-28.438H179.129z M218.364,19.097c-1.646-1.406-4.093-2.591-7.343-3.555
				c-2.11-0.755-3.548-1.383-4.314-1.885c-0.767-0.501-1.15-1.168-1.15-2.002c0-0.859,0.38-1.582,1.141-2.168
				c0.76-0.586,1.809-0.879,3.146-0.879c1.362,0,2.431,0.355,3.204,1.064c0.772,0.71,1.159,1.631,1.159,2.764h6.448l0.039-0.117
				c0.065-2.552-0.914-4.639-2.938-6.26c-2.025-1.621-4.623-2.432-7.795-2.432c-3.197,0-5.835,0.736-7.912,2.207
				c-2.077,1.472-3.115,3.398-3.115,5.781c0,2.448,0.871,4.32,2.614,5.615c1.742,1.296,4.423,2.51,8.04,3.643
				c1.729,0.612,2.929,1.191,3.598,1.738c0.668,0.547,1.002,1.322,1.002,2.324c0,0.886-0.338,1.602-1.013,2.148
				s-1.7,0.82-3.076,0.82c-1.809,0-3.158-0.352-4.05-1.055c-0.891-0.703-1.336-1.875-1.336-3.516h-6.468l-0.039,0.117
				c-0.065,3.047,1.088,5.381,3.46,7.002c2.371,1.621,5.183,2.432,8.433,2.432c3.237,0,5.835-0.706,7.795-2.119
				c1.959-1.412,2.938-3.369,2.938-5.869C220.831,22.437,220.009,20.503,218.364,19.097z M245.922,9.116V4.038h-19.933v28.438
				h19.894v-5.078h-13.229v-7.09h11.225v-5.078h-11.225V9.116H245.922z"/>
		</g>
		<g>
			<path fill="none" stroke="#FFFFFF" stroke-width="0.2" stroke-miterlimit="10" d="M160.808,17.847
				c1.337-0.533,2.326-1.328,2.969-2.383c0.642-1.055,0.963-2.259,0.963-3.613c0-2.591-0.996-4.541-2.988-5.85
				s-4.764-1.963-8.314-1.963h-8.987h-0.842v28.438h0.842h10.402c3.499,0,6.186-0.709,8.06-2.129
				c1.874-1.419,2.812-3.516,2.812-6.289c0-1.484-0.4-2.796-1.199-3.936C163.724,18.983,162.485,18.225,160.808,17.847z
				 M150.271,9.116h3.165c1.572,0,2.738,0.277,3.499,0.83c0.76,0.554,1.14,1.436,1.14,2.646c0,1.068-0.373,1.879-1.12,2.432
				c-0.747,0.554-1.874,0.844-3.382,0.869h-3.302V9.116z M158.036,26.567c-0.708,0.554-1.77,0.83-3.185,0.83h-4.58v-7.129h4.953
				c1.363,0,2.35,0.316,2.959,0.947c0.609,0.632,0.914,1.566,0.914,2.803C159.098,25.165,158.744,26.015,158.036,26.567z
				 M179.129,4.038l-9.239,28.438h6.684l1.612-5.527l4.399-16l4.623,16l1.632,5.527h6.684l-9.259-28.438H179.129z M218.364,19.097
				c-1.646-1.406-4.093-2.591-7.343-3.555c-2.11-0.755-3.548-1.383-4.314-1.885c-0.767-0.501-1.15-1.168-1.15-2.002
				c0-0.859,0.38-1.582,1.141-2.168c0.76-0.586,1.809-0.879,3.146-0.879c1.362,0,2.431,0.355,3.204,1.064
				c0.772,0.71,1.159,1.631,1.159,2.764h6.448l0.039-0.117c0.065-2.552-0.914-4.639-2.938-6.26
				c-2.025-1.621-4.623-2.432-7.795-2.432c-3.197,0-5.835,0.736-7.912,2.207c-2.077,1.472-3.115,3.398-3.115,5.781
				c0,2.448,0.871,4.32,2.614,5.615c1.742,1.296,4.423,2.51,8.04,3.643c1.729,0.612,2.929,1.191,3.598,1.738
				c0.668,0.547,1.002,1.322,1.002,2.324c0,0.886-0.338,1.602-1.013,2.148s-1.7,0.82-3.076,0.82c-1.809,0-3.158-0.352-4.05-1.055
				c-0.891-0.703-1.336-1.875-1.336-3.516h-6.468l-0.039,0.117c-0.065,3.047,1.088,5.381,3.46,7.002
				c2.371,1.621,5.183,2.432,8.433,2.432c3.237,0,5.835-0.706,7.795-2.119c1.959-1.412,2.938-3.369,2.938-5.869
				C220.831,22.437,220.009,20.503,218.364,19.097z M245.922,9.116V4.038h-19.933v28.438h19.894v-5.078h-13.229v-7.09h11.225v-5.078
				h-11.225V9.116H245.922z"/>
		</g>
	</g>
	<path fill="#84DCC6" d="M144.509,31.976V4.538h9.329c3.435,0,6.14,0.633,8.04,1.881c1.859,1.221,2.763,2.998,2.763,5.432
		c0,1.254-0.3,2.383-0.89,3.354c-0.583,0.956-1.5,1.689-2.728,2.178c-0.203,0.082-0.33,0.285-0.313,0.504
		c0.017,0.219,0.175,0.4,0.388,0.449c1.545,0.348,2.694,1.046,3.417,2.074c0.735,1.05,1.108,2.277,1.108,3.648
		c0,2.632-0.854,4.559-2.613,5.891c-1.775,1.345-4.386,2.027-7.758,2.027H144.509z M150.673,19.769c-0.276,0-0.5,0.224-0.5,0.5
		v7.129c0,0.276,0.224,0.5,0.5,0.5h4.58c1.523,0,2.698-0.315,3.492-0.937c0.832-0.649,1.254-1.639,1.254-2.942
		c0-1.365-0.354-2.425-1.054-3.149c-0.706-0.73-1.822-1.101-3.319-1.101H150.673z M150.673,8.616c-0.276,0-0.5,0.224-0.5,0.5v6.777
		c0,0.276,0.224,0.5,0.5,0.5h3.302c1.638-0.027,2.838-0.344,3.68-0.967c0.877-0.649,1.322-1.603,1.322-2.833
		c0-1.374-0.452-2.4-1.345-3.051c-0.858-0.623-2.099-0.926-3.794-0.926H150.673z"/>
	<path fill="#84DCC6" d="M189.615,31.976l-1.526-5.169l-4.622-15.997c-0.062-0.214-0.258-0.361-0.48-0.361c-0.001,0-0.002,0-0.003,0
		c-0.225,0.001-0.42,0.151-0.479,0.368l-4.399,16l-1.505,5.16h-5.62l8.914-27.438h6.409l8.934,27.438H189.615z"/>
	<path fill="#84DCC6" d="M210.499,32.386c-3.133,0-5.875-0.789-8.15-2.345c-2.146-1.467-3.21-3.499-3.244-6.206h5.522
		c0.089,1.54,0.597,2.685,1.513,3.408c0.978,0.771,2.444,1.162,4.359,1.162c1.487,0,2.628-0.313,3.391-0.932
		c0.795-0.645,1.198-1.498,1.198-2.537c0-1.155-0.398-2.067-1.186-2.711c-0.72-0.589-1.945-1.185-3.747-1.823
		c-3.566-1.116-6.221-2.317-7.908-3.572c-1.624-1.206-2.413-2.911-2.413-5.214c0-2.231,0.95-3.989,2.904-5.373
		c1.982-1.404,4.547-2.115,7.623-2.115c3.04,0,5.558,0.781,7.482,2.322c1.814,1.453,2.717,3.25,2.753,5.487h-5.514
		c-0.103-1.051-0.537-1.934-1.297-2.632c-0.865-0.794-2.058-1.196-3.542-1.196c-1.444,0-2.605,0.331-3.451,0.983
		c-0.886,0.683-1.335,1.545-1.335,2.564c0,1.009,0.463,1.823,1.377,2.42c0.807,0.528,2.252,1.162,4.42,1.937
		c3.193,0.947,5.603,2.11,7.186,3.464c1.542,1.318,2.292,3.092,2.292,5.421c0,2.352-0.894,4.139-2.73,5.464
		C216.138,31.704,213.614,32.386,210.499,32.386z"/>
	<path fill="#84DCC6" d="M226.891,31.976V4.538h18.933v4.078h-12.769c-0.276,0-0.5,0.224-0.5,0.5v6.113c0,0.276,0.224,0.5,0.5,0.5
		h10.725v4.078h-10.725c-0.276,0-0.5,0.224-0.5,0.5v7.09c0,0.276,0.224,0.5,0.5,0.5h12.729v4.078H226.891z"/>
	<line fill-rule="evenodd" clip-rule="evenodd" fill="#84DCC6" x1="185.734" y1="21.87" x2="187.208" y2="26.948"/>
</g>
<g id="investor_1_" enable-background="new    ">
	<g id="investor_2_">
		<g>
			<path fill-rule="evenodd" clip-rule="evenodd" fill="#95A3B3" d="M0.078,3.781h2.324V0.5H0.078V3.781z M0.078,30.969h2.324V9.836
				H0.078V30.969z M18.307,9.445c-1.576,0-2.939,0.354-4.092,1.064s-2.067,1.716-2.744,3.018l-0.215-3.691h-2.07v21.133h2.344
				V16.192c0.455-1.435,1.201-2.586,2.236-3.454c1.035-0.867,2.373-1.301,4.014-1.301c1.666,0,2.952,0.502,3.857,1.507
				c0.904,1.005,1.357,2.72,1.357,5.146v12.878h2.344V18.098c0-2.969-0.6-5.153-1.797-6.553
				C22.343,10.146,20.598,9.445,18.307,9.445z M39.144,25.676l-0.742,2.48h-0.117l-0.684-2.48l-5.82-15.84h-2.422l8.047,21.133
				h1.875l8.027-21.133h-2.422L39.144,25.676z M58.622,9.445c-2.474,0-4.58,0.996-6.318,2.988s-2.607,4.499-2.607,7.52v1.074
				c0,2.995,0.876,5.469,2.627,7.422s3.948,2.93,6.592,2.93c1.68,0,3.128-0.247,4.346-0.74s2.224-1.157,3.018-1.994l-0.996-1.602
				c-0.729,0.755-1.608,1.335-2.637,1.738s-2.272,0.605-3.73,0.605c-2.058,0-3.718-0.799-4.98-2.397
				c-1.263-1.598-1.895-3.586-1.895-5.964v-0.564h14.922v-1.992c0-2.734-0.742-4.922-2.227-6.563S61.213,9.445,58.622,9.445z
				 M64.638,18.469H52.255l-0.039-0.098c0.195-1.986,0.879-3.639,2.051-4.957c1.172-1.317,2.624-1.977,4.355-1.977
				c1.849,0,3.313,0.616,4.395,1.85s1.621,2.767,1.621,4.597V18.469z M85.491,21.493c-1.25-0.973-3.132-1.74-5.645-2.302
				c-2.201-0.479-3.669-1.037-4.404-1.672c-0.736-0.635-1.104-1.438-1.104-2.409c0-0.985,0.426-1.843,1.279-2.575
				c0.853-0.731,2.132-1.098,3.838-1.098c1.666,0,2.991,0.43,3.975,1.289c0.982,0.859,1.475,1.868,1.475,3.027h2.168l0.039-0.117
				c0.064-1.771-0.6-3.245-1.992-4.424c-1.394-1.179-3.281-1.768-5.664-1.768c-2.24,0-4.04,0.557-5.4,1.67
				c-1.361,1.113-2.041,2.478-2.041,4.092c0,1.641,0.602,2.91,1.807,3.809c1.204,0.898,3.069,1.621,5.596,2.168
				c2.122,0.468,3.59,1.071,4.404,1.812c0.813,0.74,1.221,1.604,1.221,2.592c0,1.053-0.488,1.948-1.465,2.688
				c-0.977,0.741-2.312,1.111-4.004,1.111c-1.563,0-2.92-0.344-4.072-1.031c-1.152-0.687-1.774-1.788-1.865-3.305h-2.148
				l-0.039,0.117c-0.078,1.692,0.615,3.151,2.08,4.375s3.479,1.836,6.045,1.836c2.344,0,4.229-0.546,5.654-1.637
				s2.139-2.518,2.139-4.281C87.366,23.789,86.741,22.467,85.491,21.493z M100.314,29.279c-0.358,0.032-0.726,0.049-1.104,0.049
				c-0.833,0-1.501-0.29-2.002-0.869s-0.752-1.56-0.752-2.939V11.75h4.648V9.836h-4.648v-5.41h-2.363v5.41h-3.652v1.914h3.652v13.77
				c0,2.031,0.413,3.516,1.24,4.453s1.982,1.406,3.467,1.406c0.56,0,1.12-0.046,1.68-0.137c0.56-0.092,1.035-0.222,1.426-0.391
				l-0.352-1.738C101.086,29.191,100.673,29.247,100.314,29.279z M114.213,9.445c-2.813,0-5.072,0.996-6.777,2.988
				c-1.706,1.992-2.559,4.544-2.559,7.656v0.645c0,3.125,0.853,5.681,2.559,7.666c1.705,1.985,3.978,2.979,6.816,2.979
				c2.813,0,5.068-0.993,6.768-2.979s2.549-4.541,2.549-7.666V20.09c0-3.112-0.854-5.664-2.559-7.656
				C119.304,10.441,117.038,9.445,114.213,9.445z M121.244,20.724c0,2.445-0.622,4.501-1.865,6.165
				c-1.244,1.665-2.953,2.498-5.127,2.498c-2.214,0-3.939-0.833-5.176-2.498c-1.237-1.664-1.855-3.72-1.855-6.165V20.08
				c0-2.406,0.618-4.448,1.855-6.126c1.236-1.678,2.949-2.517,5.137-2.517s3.906,0.839,5.156,2.517s1.875,3.72,1.875,6.126V20.724z
				 M137.932,9.514c-0.28-0.046-0.57-0.068-0.869-0.068c-1.42,0-2.644,0.364-3.672,1.094c-1.029,0.729-1.85,1.745-2.461,3.047
				v-0.234l-0.293-3.516h-2.051v21.133h2.344v-14.59c0.403-1.445,1.077-2.581,2.021-3.408c0.943-0.827,2.151-1.24,3.623-1.24
				l1.738,0.117l0.313-2.188C138.442,9.608,138.211,9.56,137.932,9.514z"/>
		</g>
		<g>
			<path fill="none" stroke="#FFFFFF" stroke-width="0.2" stroke-miterlimit="10" d="M0.078,3.781h2.324V0.5H0.078V3.781z
				 M0.078,30.969h2.324V9.836H0.078V30.969z M18.307,9.445c-1.576,0-2.939,0.354-4.092,1.064s-2.067,1.716-2.744,3.018
				l-0.215-3.691h-2.07v21.133h2.344V16.192c0.455-1.435,1.201-2.586,2.236-3.454c1.035-0.867,2.373-1.301,4.014-1.301
				c1.666,0,2.952,0.502,3.857,1.507c0.904,1.005,1.357,2.72,1.357,5.146v12.878h2.344V18.098c0-2.969-0.6-5.153-1.797-6.553
				C22.343,10.146,20.598,9.445,18.307,9.445z M39.144,25.676l-0.742,2.48h-0.117l-0.684-2.48l-5.82-15.84h-2.422l8.047,21.133
				h1.875l8.027-21.133h-2.422L39.144,25.676z M58.622,9.445c-2.474,0-4.58,0.996-6.318,2.988s-2.607,4.499-2.607,7.52v1.074
				c0,2.995,0.876,5.469,2.627,7.422s3.948,2.93,6.592,2.93c1.68,0,3.128-0.247,4.346-0.74s2.224-1.157,3.018-1.994l-0.996-1.602
				c-0.729,0.755-1.608,1.335-2.637,1.738s-2.272,0.605-3.73,0.605c-2.058,0-3.718-0.799-4.98-2.397
				c-1.263-1.598-1.895-3.586-1.895-5.964v-0.564h14.922v-1.992c0-2.734-0.742-4.922-2.227-6.563S61.213,9.445,58.622,9.445z
				 M64.638,18.469H52.255l-0.039-0.098c0.195-1.986,0.879-3.639,2.051-4.957c1.172-1.317,2.624-1.977,4.355-1.977
				c1.849,0,3.313,0.616,4.395,1.85s1.621,2.767,1.621,4.597V18.469z M85.491,21.493c-1.25-0.973-3.132-1.74-5.645-2.302
				c-2.201-0.479-3.669-1.037-4.404-1.672c-0.736-0.635-1.104-1.438-1.104-2.409c0-0.985,0.426-1.843,1.279-2.575
				c0.853-0.731,2.132-1.098,3.838-1.098c1.666,0,2.991,0.43,3.975,1.289c0.982,0.859,1.475,1.868,1.475,3.027h2.168l0.039-0.117
				c0.064-1.771-0.6-3.245-1.992-4.424c-1.394-1.179-3.281-1.768-5.664-1.768c-2.24,0-4.04,0.557-5.4,1.67
				c-1.361,1.113-2.041,2.478-2.041,4.092c0,1.641,0.602,2.91,1.807,3.809c1.204,0.898,3.069,1.621,5.596,2.168
				c2.122,0.468,3.59,1.071,4.404,1.812c0.813,0.74,1.221,1.604,1.221,2.592c0,1.053-0.488,1.948-1.465,2.688
				c-0.977,0.741-2.312,1.111-4.004,1.111c-1.563,0-2.92-0.344-4.072-1.031c-1.152-0.687-1.774-1.788-1.865-3.305h-2.148
				l-0.039,0.117c-0.078,1.692,0.615,3.151,2.08,4.375s3.479,1.836,6.045,1.836c2.344,0,4.229-0.546,5.654-1.637
				s2.139-2.518,2.139-4.281C87.366,23.789,86.741,22.467,85.491,21.493z M100.314,29.279c-0.358,0.032-0.726,0.049-1.104,0.049
				c-0.833,0-1.501-0.29-2.002-0.869s-0.752-1.56-0.752-2.939V11.75h4.648V9.836h-4.648v-5.41h-2.363v5.41h-3.652v1.914h3.652v13.77
				c0,2.031,0.413,3.516,1.24,4.453s1.982,1.406,3.467,1.406c0.56,0,1.12-0.046,1.68-0.137c0.56-0.092,1.035-0.222,1.426-0.391
				l-0.352-1.738C101.086,29.191,100.673,29.247,100.314,29.279z M114.213,9.445c-2.813,0-5.072,0.996-6.777,2.988
				c-1.706,1.992-2.559,4.544-2.559,7.656v0.645c0,3.125,0.853,5.681,2.559,7.666c1.705,1.985,3.978,2.979,6.816,2.979
				c2.813,0,5.068-0.993,6.768-2.979s2.549-4.541,2.549-7.666V20.09c0-3.112-0.854-5.664-2.559-7.656
				C119.304,10.441,117.038,9.445,114.213,9.445z M121.244,20.724c0,2.445-0.622,4.501-1.865,6.165
				c-1.244,1.665-2.953,2.498-5.127,2.498c-2.214,0-3.939-0.833-5.176-2.498c-1.237-1.664-1.855-3.72-1.855-6.165V20.08
				c0-2.406,0.618-4.448,1.855-6.126c1.236-1.678,2.949-2.517,5.137-2.517s3.906,0.839,5.156,2.517s1.875,3.72,1.875,6.126V20.724z
				 M137.932,9.514c-0.28-0.046-0.57-0.068-0.869-0.068c-1.42,0-2.644,0.364-3.672,1.094c-1.029,0.729-1.85,1.745-2.461,3.047
				v-0.234l-0.293-3.516h-2.051v21.133h2.344v-14.59c0.403-1.445,1.077-2.581,2.021-3.408c0.943-0.827,2.151-1.24,3.623-1.24
				l1.738,0.117l0.313-2.188C138.442,9.608,138.211,9.56,137.932,9.514z"/>
		</g>
	</g>
</g>
</svg>
